<svg width="795" height="336" viewBox="0 0 795 336" fill="none" xmlns="http://www.w3.org/2000/svg">
<path d="M274.507 212.243V145.043H287.371L315.979 192.467H309.163L337.291 145.043H350.059L350.251 212.243H335.659L335.563 167.411H338.251L315.787 205.139H308.779L285.835 167.411H289.099V212.243H274.507ZM359.282 212.243L389.234 145.043H404.594L434.642 212.243H418.322L393.746 152.915H399.89L375.218 212.243H359.282ZM374.258 197.843L378.386 186.035H412.946L417.17 197.843H374.258ZM457.934 175.283H490.19V187.763H457.934V175.283ZM459.086 212.243H443.534V145.043H494.318V157.523H459.086V212.243ZM495.216 212.243L525.168 145.043H540.528L570.576 212.243H554.256L529.68 152.915H535.824L511.152 212.243H495.216ZM510.192 197.843L514.32 186.035H548.88L553.104 197.843H510.192ZM593.772 172.115H626.124V184.211H593.772V172.115ZM594.924 199.763H631.5V212.243H579.468V145.043H630.252V157.523H594.924V199.763ZM667.874 213.395C662.498 213.395 657.346 212.691 652.418 211.283C647.49 209.811 643.522 207.923 640.514 205.619L645.794 193.907C648.674 195.955 652.066 197.651 655.97 198.995C659.938 200.275 663.938 200.915 667.97 200.915C671.042 200.915 673.506 200.627 675.362 200.051C677.282 199.411 678.69 198.547 679.586 197.459C680.482 196.371 680.93 195.123 680.93 193.715C680.93 191.923 680.226 190.515 678.818 189.491C677.41 188.403 675.554 187.539 673.25 186.899C670.946 186.195 668.386 185.555 665.57 184.979C662.818 184.339 660.034 183.571 657.218 182.675C654.466 181.779 651.938 180.627 649.634 179.219C647.33 177.811 645.442 175.955 643.97 173.651C642.562 171.347 641.858 168.403 641.858 164.819C641.858 160.979 642.882 157.491 644.93 154.355C647.042 151.155 650.178 148.627 654.338 146.771C658.562 144.851 663.842 143.891 670.178 143.891C674.402 143.891 678.562 144.403 682.658 145.427C686.754 146.387 690.37 147.859 693.506 149.843L688.706 161.651C685.57 159.859 682.434 158.547 679.298 157.715C676.162 156.819 673.09 156.371 670.082 156.371C667.074 156.371 664.61 156.723 662.69 157.427C660.77 158.131 659.394 159.059 658.562 160.211C657.73 161.299 657.314 162.579 657.314 164.051C657.314 165.779 658.018 167.187 659.426 168.275C660.834 169.299 662.69 170.131 664.994 170.771C667.298 171.411 669.826 172.051 672.578 172.691C675.394 173.331 678.178 174.067 680.93 174.899C683.746 175.731 686.306 176.851 688.61 178.259C690.914 179.667 692.77 181.523 694.178 183.827C695.65 186.131 696.386 189.043 696.386 192.563C696.386 196.339 695.33 199.795 693.218 202.931C691.106 206.067 687.938 208.595 683.714 210.515C679.554 212.435 674.274 213.395 667.874 213.395ZM700.101 212.243L730.053 145.043H745.413L775.461 212.243H759.141L734.565 152.915H740.709L716.037 212.243H700.101ZM715.077 197.843L719.205 186.035H753.765L757.989 197.843H715.077Z" fill="#0B384A"/>
<path d="M302.266 260.243V236.643H292.986V232.243H316.746V236.643H307.466V260.243H302.266ZM320.649 260.243V232.243H332.169C334.649 232.243 336.769 232.643 338.529 233.443C340.315 234.243 341.689 235.39 342.649 236.883C343.609 238.376 344.089 240.15 344.089 242.203C344.089 244.256 343.609 246.03 342.649 247.523C341.689 248.99 340.315 250.123 338.529 250.923C336.769 251.696 334.649 252.083 332.169 252.083H323.529L325.849 249.723V260.243H320.649ZM338.969 260.243L331.889 250.083H337.449L344.569 260.243H338.969ZM325.849 250.283L323.529 247.803H331.929C334.222 247.803 335.942 247.31 337.089 246.323C338.262 245.336 338.849 243.963 338.849 242.203C338.849 240.416 338.262 239.043 337.089 238.083C335.942 237.123 334.222 236.643 331.929 236.643H323.529L325.849 234.083V250.283ZM345.946 260.243L358.546 232.243H363.666L376.306 260.243H370.866L360.026 235.003H362.106L351.306 260.243H345.946ZM351.746 253.763L353.146 249.683H368.266L369.666 253.763H351.746ZM379.867 260.243V232.243H392.107C395.147 232.243 397.814 232.83 400.107 234.003C402.401 235.176 404.187 236.803 405.467 238.883C406.747 240.963 407.387 243.416 407.387 246.243C407.387 249.043 406.747 251.496 405.467 253.603C404.187 255.683 402.401 257.31 400.107 258.483C397.814 259.656 395.147 260.243 392.107 260.243H379.867ZM385.067 255.843H391.867C393.974 255.843 395.787 255.443 397.307 254.643C398.854 253.843 400.041 252.723 400.867 251.283C401.721 249.843 402.147 248.163 402.147 246.243C402.147 244.296 401.721 242.616 400.867 241.203C400.041 239.763 398.854 238.643 397.307 237.843C395.787 237.043 393.974 236.643 391.867 236.643H385.067V255.843ZM412.914 260.243V232.243H418.114V260.243H412.914ZM425.688 260.243V232.243H429.968L447.528 253.803H445.408V232.243H450.568V260.243H446.288L428.728 238.683H430.848V260.243H425.688ZM471.151 260.643C468.964 260.643 466.951 260.296 465.111 259.603C463.297 258.883 461.711 257.883 460.351 256.603C458.991 255.296 457.937 253.763 457.191 252.003C456.444 250.243 456.071 248.323 456.071 246.243C456.071 244.163 456.444 242.243 457.191 240.483C457.937 238.723 458.991 237.203 460.351 235.923C461.737 234.616 463.351 233.616 465.191 232.923C467.031 232.203 469.044 231.843 471.231 231.843C473.604 231.843 475.737 232.23 477.631 233.003C479.551 233.776 481.164 234.91 482.471 236.403L479.191 239.603C478.097 238.51 476.911 237.71 475.631 237.203C474.377 236.67 472.991 236.403 471.471 236.403C470.004 236.403 468.644 236.643 467.391 237.123C466.137 237.603 465.057 238.283 464.151 239.163C463.244 240.043 462.537 241.083 462.031 242.283C461.551 243.483 461.311 244.803 461.311 246.243C461.311 247.656 461.551 248.963 462.031 250.163C462.537 251.363 463.244 252.416 464.151 253.323C465.057 254.203 466.124 254.883 467.351 255.363C468.577 255.843 469.937 256.083 471.431 256.083C472.817 256.083 474.151 255.87 475.431 255.443C476.737 254.99 477.977 254.243 479.151 253.203L482.111 257.083C480.644 258.256 478.937 259.15 476.991 259.763C475.071 260.35 473.124 260.643 471.151 260.643ZM477.191 256.403V245.923H482.111V257.083L477.191 256.403ZM504.824 243.883H518.744V248.163H504.824V243.883ZM505.224 255.883H521.024V260.243H500.024V232.243H520.464V236.603H505.224V255.883ZM526.821 260.243V232.243H531.101L548.661 253.803H546.541V232.243H551.701V260.243H547.421L529.861 238.683H531.981V260.243H526.821ZM564.883 260.243V236.643H555.603V232.243H579.363V236.643H570.083V260.243H564.883ZM588.066 243.883H601.986V248.163H588.066V243.883ZM588.466 255.883H604.266V260.243H583.266V232.243H603.706V236.603H588.466V255.883ZM610.063 260.243V232.243H621.583C624.063 232.243 626.183 232.643 627.943 233.443C629.729 234.243 631.103 235.39 632.063 236.883C633.023 238.376 633.503 240.15 633.503 242.203C633.503 244.256 633.023 246.03 632.063 247.523C631.103 248.99 629.729 250.123 627.943 250.923C626.183 251.696 624.063 252.083 621.583 252.083H612.943L615.263 249.723V260.243H610.063ZM628.383 260.243L621.303 250.083H626.863L633.983 260.243H628.383ZM615.263 250.283L612.943 247.803H621.343C623.636 247.803 625.356 247.31 626.503 246.323C627.676 245.336 628.263 243.963 628.263 242.203C628.263 240.416 627.676 239.043 626.503 238.083C625.356 237.123 623.636 236.643 621.343 236.643H612.943L615.263 234.083V250.283ZM639.321 260.243V232.243H650.841C653.321 232.243 655.441 232.643 657.201 233.443C658.987 234.243 660.361 235.39 661.321 236.883C662.281 238.376 662.761 240.15 662.761 242.203C662.761 244.256 662.281 246.03 661.321 247.523C660.361 249.016 658.987 250.163 657.201 250.963C655.441 251.763 653.321 252.163 650.841 252.163H642.201L644.521 249.723V260.243H639.321ZM644.521 250.283L642.201 247.763H650.601C652.894 247.763 654.614 247.283 655.761 246.323C656.934 245.336 657.521 243.963 657.521 242.203C657.521 240.416 656.934 239.043 655.761 238.083C654.614 237.123 652.894 236.643 650.601 236.643H642.201L644.521 234.083V250.283ZM667.953 260.243V232.243H679.473C681.953 232.243 684.073 232.643 685.833 233.443C687.62 234.243 688.993 235.39 689.953 236.883C690.913 238.376 691.393 240.15 691.393 242.203C691.393 244.256 690.913 246.03 689.953 247.523C688.993 248.99 687.62 250.123 685.833 250.923C684.073 251.696 681.953 252.083 679.473 252.083H670.833L673.153 249.723V260.243H667.953ZM686.273 260.243L679.193 250.083H684.753L691.873 260.243H686.273ZM673.153 250.283L670.833 247.803H679.233C681.527 247.803 683.247 247.31 684.393 246.323C685.567 245.336 686.153 243.963 686.153 242.203C686.153 240.416 685.567 239.043 684.393 238.083C683.247 237.123 681.527 236.643 679.233 236.643H670.833L673.153 234.083V250.283ZM697.211 260.243V232.243H702.411V260.243H697.211ZM718.665 260.643C716.478 260.643 714.385 260.336 712.385 259.723C710.385 259.083 708.798 258.27 707.625 257.283L709.425 253.243C710.545 254.123 711.931 254.856 713.585 255.443C715.238 256.03 716.931 256.323 718.665 256.323C720.131 256.323 721.318 256.163 722.225 255.843C723.131 255.523 723.798 255.096 724.225 254.563C724.651 254.003 724.865 253.376 724.865 252.683C724.865 251.83 724.558 251.15 723.945 250.643C723.331 250.11 722.531 249.696 721.545 249.403C720.585 249.083 719.505 248.79 718.305 248.523C717.131 248.256 715.945 247.95 714.745 247.603C713.571 247.23 712.491 246.763 711.505 246.203C710.545 245.616 709.758 244.843 709.145 243.883C708.531 242.923 708.225 241.696 708.225 240.203C708.225 238.683 708.625 237.296 709.425 236.043C710.251 234.763 711.491 233.75 713.145 233.003C714.825 232.23 716.945 231.843 719.505 231.843C721.185 231.843 722.851 232.056 724.505 232.483C726.158 232.91 727.598 233.523 728.825 234.323L727.185 238.363C725.931 237.616 724.638 237.07 723.305 236.723C721.971 236.35 720.691 236.163 719.465 236.163C718.025 236.163 716.851 236.336 715.945 236.683C715.065 237.03 714.411 237.483 713.985 238.043C713.585 238.603 713.385 239.243 713.385 239.963C713.385 240.816 713.678 241.51 714.265 242.043C714.878 242.55 715.665 242.95 716.625 243.243C717.611 243.536 718.705 243.83 719.905 244.123C721.105 244.39 722.291 244.696 723.465 245.043C724.665 245.39 725.745 245.843 726.705 246.403C727.691 246.963 728.478 247.723 729.065 248.683C729.678 249.643 729.985 250.856 729.985 252.323C729.985 253.816 729.571 255.203 728.745 256.483C727.945 257.736 726.705 258.75 725.025 259.523C723.345 260.27 721.225 260.643 718.665 260.643ZM739.941 243.883H753.861V248.163H739.941V243.883ZM740.341 255.883H756.141V260.243H735.141V232.243H755.581V236.603H740.341V255.883Z" fill="#0B384A"/>
<path d="M45.3252 137.059H84.4889L121.389 184.257L158.515 137.059H197.452V237.777C185.462 251.419 178.273 257.921 165.306 269.172V181.729H163.948L121.615 233.984L79.2821 181.729H77.9238V269.172C64.4016 258.241 57.1223 251.535 45.0988 237.777L45.3252 137.059Z" fill="#0B384A"/>
<path fill-rule="evenodd" clip-rule="evenodd" d="M121.842 66.4731C169.505 94.5985 195.927 102.94 242.502 106.086V211.017C237.339 237.028 231.871 245.989 219.185 263.693C203.629 281.185 194.422 289.217 177.531 301.831C155.85 316.518 143.131 323.588 121.162 334.49C98.2265 323.441 86.6516 316.191 66.1521 302.674C47.8509 288.824 38.5201 280.343 23.8191 263.693C11.426 246.077 5.95514 237.995 0.954713 211.86L0.501953 106.507C51.5524 102.46 77.6548 92.2137 121.842 66.4731ZM19.7442 122.942C62.2066 116.815 84.3802 108.683 121.842 88.1758C159.393 108.321 181.309 117.088 223.033 122.942V211.86C219.756 230.735 214.862 240.036 202.885 255.265C189.89 269.986 181.336 277.509 164.175 289.821C147.616 300.882 138.312 306.346 121.615 314.895C105.492 307.005 96.2229 301.931 78.603 289.821C62.6838 277.854 54.0309 270.672 40.1184 255.265C28.2006 240.864 19.7763 218.181 19.9706 211.86C20.1649 205.539 19.7442 122.942 19.7442 122.942Z" fill="#0B384A"/>
<path d="M45.3252 137.059H84.4889L121.389 184.257L158.515 137.059H197.452V237.777C185.462 251.419 178.273 257.921 165.306 269.172V181.729H163.948L121.615 233.984L79.2821 181.729H77.9238V269.172C64.4016 258.241 57.1223 251.535 45.0988 237.777L45.3252 137.059Z" stroke="#0B384A"/>
<path fill-rule="evenodd" clip-rule="evenodd" d="M121.842 66.4731C169.505 94.5985 195.927 102.94 242.502 106.086V211.017C237.339 237.028 231.871 245.989 219.185 263.693C203.629 281.185 194.422 289.217 177.531 301.831C155.85 316.518 143.131 323.588 121.162 334.49C98.2265 323.441 86.6516 316.191 66.1521 302.674C47.8509 288.824 38.5201 280.343 23.8191 263.693C11.426 246.077 5.95514 237.995 0.954713 211.86L0.501953 106.507C51.5524 102.46 77.6548 92.2137 121.842 66.4731ZM19.7442 122.942C62.2066 116.815 84.3802 108.683 121.842 88.1758C159.393 108.321 181.309 117.088 223.033 122.942V211.86C219.756 230.735 214.862 240.036 202.885 255.265C189.89 269.986 181.336 277.509 164.175 289.821C147.616 300.882 138.312 306.346 121.615 314.895C105.492 307.005 96.2229 301.931 78.603 289.821C62.6838 277.854 54.0309 270.672 40.1184 255.265C28.2006 240.864 19.7763 218.181 19.9706 211.86C20.1649 205.539 19.7442 122.942 19.7442 122.942Z" stroke="#0B384A"/>
<path fill-rule="evenodd" clip-rule="evenodd" d="M29.8542 87.7255C28.639 93.1744 28.5603 96.1564 29.8542 101.304C44.5528 113.147 53.2852 117.434 69.3889 121.375C109.459 124.44 132.344 124.345 173.617 121.375C191.435 117.056 200.277 112.936 213.151 101.304C214.432 96.0008 214.67 93.0285 213.151 87.7255C210.579 85.6931 209.088 84.7104 205.963 84.1835C202.309 64.5473 198.855 54.0045 187.394 36.9557C175.569 23.6686 166.894 18.7845 150.255 11.5709C147.985 7.96168 146.315 6.24007 142.468 3.89636C126.134 -0.632109 116.885 -0.632129 99.9384 3.89636C96.7812 6.83672 95.4553 8.52839 93.3493 11.5709C76.2304 17.261 68.581 23.9112 55.6117 36.9557C43.212 54.4558 40.1466 64.9799 37.0424 84.1835C33.4666 84.2216 32.5537 85.0713 29.8542 87.7255ZM138.874 11.5709C125.598 7.63441 118.214 7.03639 105.329 11.5709L102.933 59.3889C101.191 74.0201 99.9652 76.6086 97.5418 74.7379V48.1723L95.7448 19.2454C81.7693 25.14 75.3638 28.9733 66.9923 36.9557C52.198 52.6847 48.7893 63.5832 45.428 84.1835L57.4082 86.5448C66.9208 87.7327 64.4372 89.2942 56.8092 92.4483H37.0424L38.2399 100.123C51.2717 106.204 59.301 108.725 74.1805 112.52C109.688 115.857 130.359 115.618 168.225 112.52C182.4 110.02 190.626 106.411 205.364 99.5325L205.963 92.4483H186.195C180.825 91.7542 180.074 90.434 179.606 87.7255L197.576 84.1835C193.742 65.733 191.399 55.3889 176.012 36.9557C166.553 28.7078 160.145 24.9152 147.26 19.2454L146.062 74.7379C145.096 75.7111 144.572 75.7081 143.666 74.7379C142.858 73.343 141.818 65.6034 140.359 54.7432C140.08 52.6601 139.784 50.4623 139.473 48.1723L138.874 11.5709Z" fill="#0B384A"/>
<path fill-rule="evenodd" clip-rule="evenodd" d="M138.874 11.5709C125.598 7.63441 118.214 7.03639 105.329 11.5709L102.933 59.3889C101.191 74.0201 99.9652 76.6086 97.5418 74.7379V48.1723L95.7448 19.2454C81.7693 25.14 75.3638 28.9733 66.9923 36.9557C52.198 52.6847 48.7893 63.5832 45.428 84.1835L57.4082 86.5448C66.9208 87.7327 64.4372 89.2942 56.8092 92.4483H37.0424L38.2399 100.123C51.2717 106.204 59.301 108.725 74.1805 112.52C109.688 115.857 130.359 115.618 168.225 112.52C182.4 110.02 190.626 106.411 205.364 99.5325L205.963 92.4483H186.195C180.825 91.7542 180.074 90.434 179.606 87.7255L197.576 84.1835C193.742 65.733 191.399 55.3889 176.012 36.9557C166.553 28.7078 160.145 24.9152 147.26 19.2454L146.062 74.7379C145.096 75.7111 144.572 75.7081 143.666 74.7379C142.858 73.343 141.818 65.6034 140.359 54.7432C140.08 52.6601 139.784 50.4623 139.473 48.1723L138.874 11.5709ZM161.636 103.075C130.091 104.205 112.766 104.231 81.9676 103.075C90.8334 101.622 101.256 100.441 125.695 100.123C143.864 100.707 152.507 101.25 161.636 103.075Z" fill="#FFCC00"/>
<path d="M81.9676 103.075C112.766 104.231 130.091 104.205 161.636 103.075C152.507 101.25 143.864 100.707 125.695 100.123C101.256 100.441 90.8334 101.622 81.9676 103.075Z" fill="#0B384A"/>
<path fill-rule="evenodd" clip-rule="evenodd" d="M29.8542 87.7255C28.639 93.1744 28.5603 96.1564 29.8542 101.304C44.5528 113.147 53.2852 117.434 69.3889 121.375C109.459 124.44 132.344 124.345 173.617 121.375C191.435 117.056 200.277 112.936 213.151 101.304C214.432 96.0008 214.67 93.0285 213.151 87.7255C210.579 85.6931 209.088 84.7104 205.963 84.1835C202.309 64.5473 198.855 54.0045 187.394 36.9557C175.569 23.6686 166.894 18.7845 150.255 11.5709C147.985 7.96168 146.315 6.24007 142.468 3.89636C126.134 -0.632109 116.885 -0.632129 99.9384 3.89636C96.7812 6.83672 95.4553 8.52839 93.3493 11.5709C76.2304 17.261 68.581 23.9112 55.6117 36.9557C43.212 54.4558 40.1466 64.9799 37.0424 84.1835C33.4666 84.2216 32.5537 85.0713 29.8542 87.7255ZM138.874 11.5709C125.598 7.63441 118.214 7.03639 105.329 11.5709L102.933 59.3889C101.191 74.0201 99.9652 76.6086 97.5418 74.7379V48.1723L95.7448 19.2454C81.7693 25.14 75.3638 28.9733 66.9923 36.9557C52.198 52.6847 48.7893 63.5832 45.428 84.1835L57.4082 86.5448C66.9208 87.7327 64.4372 89.2942 56.8092 92.4483H37.0424L38.2399 100.123C51.2717 106.204 59.301 108.725 74.1805 112.52C109.688 115.857 130.359 115.618 168.225 112.52C182.4 110.02 190.626 106.411 205.364 99.5325L205.963 92.4483H186.195C180.825 91.7542 180.074 90.434 179.606 87.7255L197.576 84.1835C193.742 65.733 191.399 55.3889 176.012 36.9557C166.553 28.7078 160.145 24.9152 147.26 19.2454L146.062 74.7379C145.096 75.7111 144.572 75.7081 143.666 74.7379C142.858 73.343 141.818 65.6034 140.359 54.7432C140.08 52.6601 139.784 50.4623 139.473 48.1723L138.874 11.5709Z" stroke="#0B384A"/>
<path fill-rule="evenodd" clip-rule="evenodd" d="M138.874 11.5709C125.598 7.63441 118.214 7.03639 105.329 11.5709L102.933 59.3889C101.191 74.0201 99.9652 76.6086 97.5418 74.7379V48.1723L95.7448 19.2454C81.7693 25.14 75.3638 28.9733 66.9923 36.9557C52.198 52.6847 48.7893 63.5832 45.428 84.1835L57.4082 86.5448C66.9208 87.7327 64.4372 89.2942 56.8092 92.4483H37.0424L38.2399 100.123C51.2717 106.204 59.301 108.725 74.1805 112.52C109.688 115.857 130.359 115.618 168.225 112.52C182.4 110.02 190.626 106.411 205.364 99.5325L205.963 92.4483H186.195C180.825 91.7542 180.074 90.434 179.606 87.7255L197.576 84.1835C193.742 65.733 191.399 55.3889 176.012 36.9557C166.553 28.7078 160.145 24.9152 147.26 19.2454L146.062 74.7379C145.096 75.7111 144.572 75.7081 143.666 74.7379C142.858 73.343 141.818 65.6034 140.359 54.7432C140.08 52.6601 139.784 50.4623 139.473 48.1723L138.874 11.5709ZM161.636 103.075C130.091 104.205 112.766 104.231 81.9676 103.075C90.8334 101.622 101.256 100.441 125.695 100.123C143.864 100.707 152.507 101.25 161.636 103.075Z" stroke="#0B384A"/>
<path d="M81.9676 103.075C112.766 104.231 130.091 104.205 161.636 103.075C152.507 101.25 143.864 100.707 125.695 100.123C101.256 100.441 90.8334 101.622 81.9676 103.075Z" stroke="#0B384A"/>
</svg>
